<svg width="416" height="354" viewBox="0 0 416 354" fill="none" xmlns="http://www.w3.org/2000/svg">
<g clip-path="url(#clip0_2370_17470)">
<mask id="mask0_2370_17470" style="mask-type:alpha" maskUnits="userSpaceOnUse" x="-40" y="-454" width="863" height="778">
<path d="M391.5 324C629.811 324 823 149.839 823 -65C823 -279.839 629.811 -454 391.5 -454C153.189 -454 -40 -279.839 -40 -65C-40 149.839 153.189 324 391.5 324Z" fill="url(#paint0_radial_2370_17470)"/>
</mask>
<g mask="url(#mask0_2370_17470)">
<g opacity="0.15">
<path d="M-54.8159 88.0721H379.783" stroke="#2F2F2F" stroke-width="1.64621"/>
<path d="M-54.8159 219.769H379.783" stroke="#2F2F2F" stroke-width="1.64621"/>
<path d="M310.643 153.921H315.581" stroke="#2F2F2F" stroke-width="1.64621"/>
<path d="M297.473 153.921H302.412" stroke="#2F2F2F" stroke-width="1.64621"/>
<path d="M284.303 153.921H289.242" stroke="#2F2F2F" stroke-width="1.64621"/>
<path d="M271.134 153.921H276.072" stroke="#2F2F2F" stroke-width="1.64621"/>
<path d="M257.964 153.921H262.902" stroke="#2F2F2F" stroke-width="1.64621"/>
<path d="M244.794 153.921H249.733" stroke="#2F2F2F" stroke-width="1.64621"/>
<path d="M323.812 153.921H328.751" stroke="#2F2F2F" stroke-width="1.64621"/>
<path d="M336.982 153.921H341.921" stroke="#2F2F2F" stroke-width="1.64621"/>
<path d="M350.151 153.921H355.09" stroke="#2F2F2F" stroke-width="1.64621"/>
<path d="M363.321 153.921H368.26" stroke="#2F2F2F" stroke-width="1.64621"/>
<path d="M376.491 153.921H381.43" stroke="#2F2F2F" stroke-width="1.64621"/>
<path d="M165.776 153.921H170.715" stroke="#2F2F2F" stroke-width="1.64621"/>
<path d="M152.606 153.921H157.545" stroke="#2F2F2F" stroke-width="1.64621"/>
<path d="M139.437 153.921H144.376" stroke="#2F2F2F" stroke-width="1.64621"/>
<path d="M126.267 153.921H131.206" stroke="#2F2F2F" stroke-width="1.64621"/>
<path d="M113.098 153.921H118.036" stroke="#2F2F2F" stroke-width="1.64621"/>
<path d="M99.9277 153.921H104.866" stroke="#2F2F2F" stroke-width="1.64621"/>
<path d="M178.946 153.921H183.884" stroke="#2F2F2F" stroke-width="1.64621"/>
<path d="M192.116 153.921H197.054" stroke="#2F2F2F" stroke-width="1.64621"/>
<path d="M205.285 153.921H210.224" stroke="#2F2F2F" stroke-width="1.64621"/>
<path d="M218.455 153.921H223.394" stroke="#2F2F2F" stroke-width="1.64621"/>
<path d="M231.625 153.921H236.563" stroke="#2F2F2F" stroke-width="1.64621"/>
<path d="M34.0793 153.921H39.018" stroke="#2F2F2F" stroke-width="1.64621"/>
<path d="M20.9097 153.921H25.8483" stroke="#2F2F2F" stroke-width="1.64621"/>
<path d="M7.73999 153.921H12.6786" stroke="#2F2F2F" stroke-width="1.64621"/>
<path d="M47.249 153.921H52.1877" stroke="#2F2F2F" stroke-width="1.64621"/>
<path d="M60.4187 153.921H65.3573" stroke="#2F2F2F" stroke-width="1.64621"/>
<path d="M73.5884 153.921H78.527" stroke="#2F2F2F" stroke-width="1.64621"/>
<path d="M86.7581 153.921H91.6967" stroke="#2F2F2F" stroke-width="1.64621"/>
<path d="M99.9277 153.921H104.866" stroke="#2F2F2F" stroke-width="1.64621"/>
<path d="M310.643 285.617H315.581" stroke="#2F2F2F" stroke-width="1.64621"/>
<path d="M297.473 285.617H302.412" stroke="#2F2F2F" stroke-width="1.64621"/>
<path d="M284.303 285.617H289.242" stroke="#2F2F2F" stroke-width="1.64621"/>
<path d="M271.134 285.617H276.072" stroke="#2F2F2F" stroke-width="1.64621"/>
<path d="M257.964 285.617H262.902" stroke="#2F2F2F" stroke-width="1.64621"/>
<path d="M244.794 285.617H249.733" stroke="#2F2F2F" stroke-width="1.64621"/>
<path d="M323.812 285.617H328.751" stroke="#2F2F2F" stroke-width="1.64621"/>
<path d="M336.982 285.617H341.921" stroke="#2F2F2F" stroke-width="1.64621"/>
<path d="M350.151 285.617H355.09" stroke="#2F2F2F" stroke-width="1.64621"/>
<path d="M363.321 285.617H368.26" stroke="#2F2F2F" stroke-width="1.64621"/>
<path d="M376.491 285.617H381.43" stroke="#2F2F2F" stroke-width="1.64621"/>
<path d="M165.776 285.617H170.715" stroke="#2F2F2F" stroke-width="1.64621"/>
<path d="M152.606 285.617H157.545" stroke="#2F2F2F" stroke-width="1.64621"/>
<path d="M139.437 285.617H144.376" stroke="#2F2F2F" stroke-width="1.64621"/>
<path d="M126.267 285.617H131.206" stroke="#2F2F2F" stroke-width="1.64621"/>
<path d="M113.098 285.617H118.036" stroke="#2F2F2F" stroke-width="1.64621"/>
<path d="M99.9277 285.617H104.866" stroke="#2F2F2F" stroke-width="1.64621"/>
<path d="M178.946 285.617H183.884" stroke="#2F2F2F" stroke-width="1.64621"/>
<path d="M192.116 285.617H197.054" stroke="#2F2F2F" stroke-width="1.64621"/>
<path d="M205.285 285.617H210.224" stroke="#2F2F2F" stroke-width="1.64621"/>
<path d="M218.455 285.617H223.394" stroke="#2F2F2F" stroke-width="1.64621"/>
<path d="M231.625 285.617H236.563" stroke="#2F2F2F" stroke-width="1.64621"/>
<path d="M34.0793 285.617H39.018" stroke="#2F2F2F" stroke-width="1.64621"/>
<path d="M20.9097 285.617H25.8483" stroke="#2F2F2F" stroke-width="1.64621"/>
<path d="M7.73999 285.617H12.6786" stroke="#2F2F2F" stroke-width="1.64621"/>
<path d="M47.249 285.617H52.1877" stroke="#2F2F2F" stroke-width="1.64621"/>
<path d="M60.4187 285.617H65.3573" stroke="#2F2F2F" stroke-width="1.64621"/>
<path d="M73.5884 285.617H78.527" stroke="#2F2F2F" stroke-width="1.64621"/>
<path d="M86.7581 285.617H91.6967" stroke="#2F2F2F" stroke-width="1.64621"/>
<path d="M99.9277 285.617H104.866" stroke="#2F2F2F" stroke-width="1.64621"/>
<path d="M128.736 103.711V98.7726" stroke="#2F2F2F" stroke-width="1.64621"/>
<path d="M128.736 116.881V111.942" stroke="#2F2F2F" stroke-width="1.64621"/>
<path d="M128.736 130.05V125.112" stroke="#2F2F2F" stroke-width="1.64621"/>
<path d="M128.736 143.22V138.281" stroke="#2F2F2F" stroke-width="1.64621"/>
<path d="M128.736 156.39V151.451" stroke="#2F2F2F" stroke-width="1.64621"/>
<path d="M128.736 169.559V164.621" stroke="#2F2F2F" stroke-width="1.64621"/>
<path d="M128.736 90.5415V85.6029" stroke="#2F2F2F" stroke-width="1.64621"/>
<path d="M128.736 77.3719V72.4332" stroke="#2F2F2F" stroke-width="1.64621"/>
<path d="M128.736 64.2022V59.2635" stroke="#2F2F2F" stroke-width="1.64621"/>
<path d="M128.736 51.0325V46.0939" stroke="#2F2F2F" stroke-width="1.64621"/>
<path d="M128.736 37.8628V32.9242" stroke="#2F2F2F" stroke-width="1.64621"/>
<path d="M128.736 248.578V243.639" stroke="#2F2F2F" stroke-width="1.64621"/>
<path d="M128.736 261.747V256.809" stroke="#2F2F2F" stroke-width="1.64621"/>
<path d="M128.736 274.917V269.978" stroke="#2F2F2F" stroke-width="1.64621"/>
<path d="M128.736 288.087V283.148" stroke="#2F2F2F" stroke-width="1.64621"/>
<path d="M128.736 301.256V296.318" stroke="#2F2F2F" stroke-width="1.64621"/>
<path d="M128.736 314.426V309.487" stroke="#2F2F2F" stroke-width="1.64621"/>
<path d="M128.736 235.408V230.469" stroke="#2F2F2F" stroke-width="1.64621"/>
<path d="M128.736 222.238V217.3" stroke="#2F2F2F" stroke-width="1.64621"/>
<path d="M128.736 209.069V204.13" stroke="#2F2F2F" stroke-width="1.64621"/>
<path d="M128.736 195.899V190.96" stroke="#2F2F2F" stroke-width="1.64621"/>
<path d="M128.736 182.729V177.791" stroke="#2F2F2F" stroke-width="1.64621"/>
<path d="M128.736 327.596V322.657" stroke="#2F2F2F" stroke-width="1.64621"/>
<path d="M128.736 314.426V309.487" stroke="#2F2F2F" stroke-width="1.64621"/>
<path d="M260.433 103.711V98.7726" stroke="#2F2F2F" stroke-width="1.64621"/>
<path d="M260.433 116.881V111.942" stroke="#2F2F2F" stroke-width="1.64621"/>
<path d="M260.433 130.05V125.112" stroke="#2F2F2F" stroke-width="1.64621"/>
<path d="M260.433 143.22V138.281" stroke="#2F2F2F" stroke-width="1.64621"/>
<path d="M260.433 156.39V151.451" stroke="#2F2F2F" stroke-width="1.64621"/>
<path d="M260.433 169.559V164.621" stroke="#2F2F2F" stroke-width="1.64621"/>
<path d="M260.433 90.5415V85.6029" stroke="#2F2F2F" stroke-width="1.64621"/>
<path d="M260.433 77.3719V72.4332" stroke="#2F2F2F" stroke-width="1.64621"/>
<path d="M260.433 64.2022V59.2635" stroke="#2F2F2F" stroke-width="1.64621"/>
<path d="M260.433 51.0325V46.0939" stroke="#2F2F2F" stroke-width="1.64621"/>
<path d="M260.433 37.8628V32.9242" stroke="#2F2F2F" stroke-width="1.64621"/>
<path d="M260.433 248.578V243.639" stroke="#2F2F2F" stroke-width="1.64621"/>
<path d="M260.433 261.747V256.809" stroke="#2F2F2F" stroke-width="1.64621"/>
<path d="M260.433 274.917V269.978" stroke="#2F2F2F" stroke-width="1.64621"/>
<path d="M260.433 288.087V283.148" stroke="#2F2F2F" stroke-width="1.64621"/>
<path d="M260.433 301.256V296.318" stroke="#2F2F2F" stroke-width="1.64621"/>
<path d="M260.433 314.426V309.487" stroke="#2F2F2F" stroke-width="1.64621"/>
<path d="M260.433 235.408V230.469" stroke="#2F2F2F" stroke-width="1.64621"/>
<path d="M260.433 222.238V217.3" stroke="#2F2F2F" stroke-width="1.64621"/>
<path d="M260.433 209.069V204.13" stroke="#2F2F2F" stroke-width="1.64621"/>
<path d="M260.433 195.899V190.96" stroke="#2F2F2F" stroke-width="1.64621"/>
<path d="M260.433 182.729V177.791" stroke="#2F2F2F" stroke-width="1.64621"/>
<path d="M260.433 327.596V322.657" stroke="#2F2F2F" stroke-width="1.64621"/>
<path d="M260.433 314.426V309.487" stroke="#2F2F2F" stroke-width="1.64621"/>
<mask id="path-112-inside-1_2370_17470" fill="white">
<path d="M62.0649 34.5704V403.321H63.7112V34.5704H62.0649Z"/>
</mask>
<path d="M62.0649 34.5704V403.321H63.7112V34.5704H62.0649Z" fill="#F7F8F8"/>
<path d="M62.0649 403.321H60.4187V404.967H62.0649V403.321ZM62.0649 34.5704V32.9242H60.4187V34.5704H62.0649ZM63.7112 34.5704H65.3574V32.9242H63.7112V34.5704ZM63.7112 403.321V404.967H65.3574V403.321H63.7112ZM62.0649 403.321H63.7112V34.5704H62.0649H60.4187V403.321H62.0649ZM62.0649 34.5704V36.2166H63.7112V34.5704V32.9242H62.0649V34.5704ZM63.7112 34.5704H62.0649V403.321H63.7112H65.3574V34.5704H63.7112ZM63.7112 403.321V401.675H62.0649V403.321V404.967H63.7112V403.321Z" fill="#2F2F2F" mask="url(#path-112-inside-1_2370_17470)"/>
<mask id="path-114-inside-2_2370_17470" fill="white">
<path d="M194.585 34.5704V403.321H196.231V34.5704H194.585Z"/>
</mask>
<path d="M194.585 34.5704V403.321H196.231V34.5704H194.585Z" fill="#F7F8F8"/>
<path d="M194.585 403.321H192.939V404.967H194.585V403.321ZM194.585 34.5704V32.9242H192.939V34.5704H194.585ZM196.231 34.5704H197.877V32.9242H196.231V34.5704ZM196.231 403.321V404.967H197.877V403.321H196.231ZM194.585 403.321H196.231V34.5704H194.585H192.939V403.321H194.585ZM194.585 34.5704V36.2166H196.231V34.5704V32.9242H194.585V34.5704ZM196.231 34.5704H194.585V403.321H196.231H197.877V34.5704H196.231ZM196.231 403.321V401.675H194.585V403.321V404.967H196.231V403.321Z" fill="#2F2F2F" mask="url(#path-114-inside-2_2370_17470)"/>
<mask id="path-116-inside-3_2370_17470" fill="white">
<path d="M326.282 34.5704V403.321H327.928V34.5704H326.282Z"/>
</mask>
<path d="M326.282 34.5704V403.321H327.928V34.5704H326.282Z" fill="#F7F8F8"/>
<path d="M326.282 403.321H324.636V404.967H326.282V403.321ZM326.282 34.5704V32.9242H324.636V34.5704H326.282ZM327.928 34.5704H329.574V32.9242H327.928V34.5704ZM327.928 403.321V404.967H329.574V403.321H327.928ZM326.282 403.321H327.928V34.5704H326.282H324.636V403.321H326.282ZM326.282 34.5704V36.2166H327.928V34.5704V32.9242H326.282V34.5704ZM327.928 34.5704H326.282V403.321H327.928H329.574V34.5704H327.928ZM327.928 403.321V401.675H326.282V403.321V404.967H327.928V403.321Z" fill="#2F2F2F" mask="url(#path-116-inside-3_2370_17470)"/>
</g>
<path d="M150.191 33.7611H171.301C194.945 33.7611 215.249 42.2608 231.551 59.0394L232.36 59.8715L232.385 59.8187C248.632 75.9977 256.861 96.0162 256.861 119.28V150.368C256.861 153.778 255.736 157.099 253.67 159.819L211.354 215.415C210.013 217.173 207.203 216.224 207.202 214.016V180.52L205.799 181.918L115.26 272.099L114.937 272.421L115.038 272.866C118.703 288.879 133.478 300.588 150.191 300.588H171.301C171.661 300.588 172.007 300.588 172.364 300.571C171.754 305.17 171.551 309.756 171.551 314.435V350.233H150.191C126.8 350.233 106.368 341.86 89.4719 325.435C72.912 308.411 64.5345 287.974 64.5344 264.577V119.293C64.5344 95.7723 72.9111 75.5866 89.4631 59.0482H89.4641C106.238 42.2606 126.672 33.7611 150.191 33.7611ZM150.191 83.2806C130.648 83.2806 114.178 99.7511 114.178 119.293V203.83L115.585 202.417L206.123 111.411L206.452 111.08L206.338 110.628C202.311 94.6321 187.906 83.2807 171.301 83.2806H150.191Z" stroke="#929292" stroke-width="1.64621"/>
<path d="M415.177 33.7474V69.9017C415.177 94.4574 407.057 117.784 391 139.269L390.23 140.29L276.667 289.371L276.659 289.384L276.649 289.397C276.5 289.609 274.382 292.645 272.298 297.234C270.218 301.816 268.146 308.003 268.146 314.504V350.204H208.993V314.504C208.993 294.141 215.79 273.688 229.263 253.712L229.517 253.364L342.906 104.516L342.905 104.515C346.867 99.5561 349.959 93.5296 352.097 88.1049C354.227 82.7012 355.445 77.8092 355.608 75.099L356.035 69.5941L356.038 69.5629V33.7474H415.177Z" stroke="#929292" stroke-width="1.64621"/>
<path d="M355.214 32.9242V69.5306L354.788 75.0353C354.485 80.196 350.054 94.2605 342.251 104.018L228.853 252.879L228.592 253.237C215.037 273.329 208.169 293.944 208.169 314.504V351.028H268.969V314.504C268.969 301.83 277.061 290.242 277.322 289.871L390.885 140.789C407.55 118.894 416 95.0449 416 69.9021V32.9242H355.2H355.214Z" fill="url(#paint1_linear_2370_17470)"/>
</g>
</g>
<defs>
<radialGradient id="paint0_radial_2370_17470" cx="0" cy="0" r="1" gradientUnits="userSpaceOnUse" gradientTransform="translate(391.5 -65) rotate(90) scale(389 431.5)">
<stop offset="0.33" stop-color="white"/>
<stop offset="1" stop-color="white" stop-opacity="0"/>
</radialGradient>
<linearGradient id="paint1_linear_2370_17470" x1="436.5" y1="-145" x2="288.5" y2="192" gradientUnits="userSpaceOnUse">
<stop stop-color="#D61F1F"/>
<stop offset="1" stop-color="white" stop-opacity="0"/>
</linearGradient>
<clipPath id="clip0_2370_17470">
<rect width="416" height="354" fill="white"/>
</clipPath>
</defs>
</svg>
