<svg width="20" height="20" viewBox="0 0 20 20" fill="none" xmlns="http://www.w3.org/2000/svg">
<path d="M11.2627 3V4.66406C11.2626 5.79538 10.8873 6.8682 10.1445 7.85352L5.08301 14.5635C5.06936 14.5836 4.71003 15.1029 4.70996 15.6719V17.3154H2V15.6719C2.00004 14.746 2.30657 13.8193 2.91016 12.915L2.92188 12.8984L7.97559 6.19922C8.3238 5.76018 8.5217 5.12636 8.53516 4.89453L8.55371 4.64746V3H11.2627ZM18 3V4.66406C17.9999 5.79547 17.6237 6.86814 16.8809 7.85352L11.8193 14.5635C11.8034 14.5869 11.4473 15.1049 11.4473 15.6719V17.3154H8.7373V15.6719C8.73734 14.746 9.043 13.8192 9.64648 12.915L9.6582 12.8984L14.7129 6.19922C15.0611 5.7602 15.258 5.12638 15.2715 4.89453L15.291 4.64746V3H18Z" fill="#D61F1F"/>
</svg>
