<?xml version="1.0" encoding="UTF-8"?>
<svg id="Layer_1" data-name="Layer 1" xmlns="http://www.w3.org/2000/svg" viewBox="0 0 256 256">
  <defs>
    <style>
      .cls-1 {
        fill: #fff;
      }

      .cls-2 {
        fill: #efca30;
      }
    </style>
  </defs>
  <path class="cls-1" d="M122.39,30.97c-11.96-12.31-26.87-18.55-44.21-18.55h-15.34c-17.25,0-32.25,6.24-44.55,18.55C6.15,43.1,0,57.92,0,75.17v105.57c0,17.16,6.15,32.16,18.29,44.64,12.39,12.05,27.39,18.2,44.55,18.2h16.12v-26.61c0-3.64.17-7.19.69-10.75-.52.09-.95.09-1.47.09h-15.34c-11.87,0-22.36-8.32-24.96-19.68l65.79-65.53v22.9c0,2.18,2.77,3.11,4.09,1.38l30.75-40.4c1.58-2.08,2.44-4.62,2.44-7.23v-22.59c0-17.34-6.24-32.24-18.55-44.21ZM37.27,135.15v-59.98c0-13.87,11.7-25.57,25.57-25.57h15.34c11.79,0,22.02,8.06,24.88,19.42l-65.79,66.13Z"/>
  <path class="cls-2" d="M211.82,12.41v26.6l-.31,4c-.22,3.75-3.44,13.97-9.11,21.06l-82.4,108.17-.19.26c-9.85,14.6-14.84,29.58-14.84,44.52v26.54h44.18v-26.54c0-9.21,5.88-17.63,6.07-17.9l82.52-108.33c12.11-15.91,18.25-33.24,18.25-51.51V12.41h-44.18Z"/>
</svg>